<svg xmlns="http://www.w3.org/2000/svg" xmlns:xlink="http://www.w3.org/1999/xlink" width="408.535" height="159.029" viewBox="0 0 408.535 159.029">
  <defs>
    <clipPath id="clip-path">
      <rect id="Rectangle_156" data-name="Rectangle 156" width="408.535" height="159.029" fill="none"/>
    </clipPath>
  </defs>
  <g id="Group_26" data-name="Group 26" transform="translate(-12.276)">
    <g id="Group_25" data-name="Group 25" transform="translate(12.276)" clip-path="url(#clip-path)">
      <path id="Path_214" data-name="Path 214" d="M138.747,341.355c4.091,8.756.869,15.776.869,15.776s-6.912-.905-10.988-9.661c-4.08-8.777-3.8-22.072-3.8-22.072s9.846,7.188,13.918,15.957" transform="translate(-81.092 -204.602)" fill="#fff"/>
      <path id="Path_215" data-name="Path 215" d="M95.878,406.3a15.1,15.1,0,0,0,12.652-6.49,15.129,15.129,0,0,0-12.63-6.551c-8.719-.029-18.915,6.473-18.915,6.473s10.174,6.559,18.893,6.568" transform="translate(-50.013 -247.269)" fill="#fff"/>
      <path id="Path_216" data-name="Path 216" d="M95.657,311.235c2.176,8.452-1.731,13.894-1.731,13.894s-5.862-2.213-8.035-10.656.192-19.963.192-19.963,7.423,8.269,9.574,16.725" transform="translate(-55.205 -185.18)" fill="#fff"/>
      <path id="Path_217" data-name="Path 217" d="M47.613,365.13a12.753,12.753,0,0,0,12.041-3.038A14.482,14.482,0,0,0,49.69,353.8c-7.57-1.806-17.468,1.754-17.468,1.754s7.806,7.775,15.391,9.577" transform="translate(-20.933 -222.138)" fill="#fff"/>
      <path id="Path_218" data-name="Path 218" d="M64.562,271.093c.258,7.683-4.083,11.34-4.083,11.34s-4.54-3.273-4.8-10.958c-.251-7.7,3.9-16.866,3.9-16.866s4.743,8.8,4.986,16.484" transform="translate(-36.166 -160.091)" fill="#fff"/>
      <path id="Path_219" data-name="Path 219" d="M17.845,308.537c6.068,3.365,10.755.343,10.755.343a13.706,13.706,0,0,0-6.889-9.443C15.643,296.085,6.6,296.694,6.6,296.694s5.174,8.487,11.246,11.843" transform="translate(-4.287 -186.526)" fill="#fff"/>
      <path id="Path_220" data-name="Path 220" d="M47.935,220.62c-2.169,6.775-7.048,8.221-7.048,8.221s-2.96-4.68-.788-11.461c2.154-6.775,8.594-13.075,8.594-13.075s1.388,9.537-.758,16.315" transform="translate(-25.533 -128.461)" fill="#fff"/>
      <path id="Path_221" data-name="Path 221" d="M6.075,232.952c4.249,5.352,9.264,4.6,9.264,4.6A14.161,14.161,0,0,0,12.276,226.6C8.034,221.246,0,218.153,0,218.153s1.848,9.43,6.075,14.8" transform="translate(0 -137.169)" fill="#fff"/>
      <path id="Path_222" data-name="Path 222" d="M43.753,168.254c-3.5,6.014-8.535,6.138-8.535,6.138a14.336,14.336,0,0,1,1.576-11.346c3.461-6.027,11.01-10.461,11.01-10.461s-.574,9.648-4.05,15.669" transform="translate(-22.537 -95.941)" fill="#fff"/>
      <path id="Path_223" data-name="Path 223" d="M7.739,165.592c3.027,6.322,8.053,6.922,8.053,6.922a14.454,14.454,0,0,0-.747-11.463C12.014,154.73,4.812,149.6,4.812,149.6s-.1,9.669,2.927,15.994" transform="translate(-3.126 -94.063)" fill="#fff"/>
      <path id="Path_224" data-name="Path 224" d="M53.879,124.378c-4.573,4.208-9.058,2.693-9.058,2.693a12.735,12.735,0,0,1,4.2-9.523c4.558-4.216,12.327-5.71,12.327-5.71s-2.909,8.326-7.467,12.54" transform="translate(-29.113 -70.321)" fill="#fff"/>
      <path id="Path_225" data-name="Path 225" d="M28.835,103.867c1.116,6.574,5.413,8.7,5.413,8.7s3.277-3.789,2.18-10.365c-1.112-6.56-6.208-13.41-6.208-13.41s-2.5,8.513-1.385,15.074" transform="translate(-18.547 -55.831)" fill="#fff"/>
      <path id="Path_226" data-name="Path 226" d="M126.383,35.345a6.531,6.531,0,0,1-5.6-2.607,6.664,6.664,0,0,1,5.416-3.077c3.8-.146,8.329,2.492,8.329,2.492s-4.341,3.028-8.141,3.192" transform="translate(-78.463 -18.646)" fill="#fff"/>
      <path id="Path_227" data-name="Path 227" d="M119.815,7.194a8.634,8.634,0,0,0-.177,6.882s3.008-.511,4.662-4.4C125.971,5.8,125.662,0,125.662,0s-4.2,3.307-5.847,7.194" transform="translate(-77.323 0)" fill="#fff"/>
      <path id="Path_228" data-name="Path 228" d="M99.687,57.4a8.117,8.117,0,0,1-7.6-2.146,9.1,9.1,0,0,1,6.429-5.084c4.824-1,11.054,1.427,11.054,1.427s-5.052,4.784-9.883,5.8" transform="translate(-59.824 -31.39)" fill="#fff"/>
      <path id="Path_229" data-name="Path 229" d="M88.611,22.773a11.112,11.112,0,0,0,.9,8.846s3.748-1.3,5.243-6.62.147-12.658.147-12.658-4.809,5.111-6.289,10.432" transform="translate(-57.247 -7.76)" fill="#fff"/>
      <path id="Path_230" data-name="Path 230" d="M71.545,88.363a8.716,8.716,0,0,1-8.7.484,11.152,11.152,0,0,1,5.413-7.769c4.868-2.827,12.2-2.519,12.2-2.519s-4.054,6.968-8.91,9.8" transform="translate(-40.829 -49.39)" fill="#fff"/>
      <path id="Path_231" data-name="Path 231" d="M52.923,59.011c-.1,6.215,3.465,9.1,3.465,9.1s3.634-2.741,3.726-8.969-3.406-13.563-3.406-13.563-3.69,7.2-3.785,13.437" transform="translate(-34.38 -28.656)" fill="#fff"/>
      <path id="Path_232" data-name="Path 232" d="M150.128,9.143a7.391,7.391,0,0,0-4.44,4.7,6.135,6.135,0,0,0,6.02.694c3.616-1.375,7.025-5.682,7.025-5.682s-5-1.094-8.605.291" transform="translate(-94.646 -5.308)" fill="#fff"/>
      <path id="Path_233" data-name="Path 233" d="M997.613,341.355c-4.08,8.756-.861,15.776-.861,15.776s6.911-.905,11-9.661c4.058-8.777,3.789-22.072,3.789-22.072s-9.842,7.188-13.929,15.957" transform="translate(-646.754 -204.602)" fill="#fff"/>
      <path id="Path_234" data-name="Path 234" d="M1011.653,406.3a15.14,15.14,0,0,1-12.666-6.49,15.168,15.168,0,0,1,12.651-6.551c8.7-.029,18.9,6.473,18.9,6.473s-10.17,6.559-18.889,6.568" transform="translate(-648.99 -247.269)" fill="#fff"/>
      <path id="Path_235" data-name="Path 235" d="M1049.352,311.235c-2.158,8.452,1.742,13.894,1.742,13.894s5.854-2.213,8.027-10.656c2.15-8.445-.2-19.963-.2-19.963s-7.412,8.269-9.569,16.725" transform="translate(-681.287 -185.18)" fill="#fff"/>
      <path id="Path_236" data-name="Path 236" d="M1067.57,365.13a12.736,12.736,0,0,1-12.04-3.038,14.476,14.476,0,0,1,9.942-8.292c7.577-1.806,17.486,1.754,17.486,1.754s-7.824,7.775-15.388,9.577" transform="translate(-685.723 -222.138)" fill="#fff"/>
      <path id="Path_237" data-name="Path 237" d="M1084.979,271.093c-.258,7.683,4.065,11.34,4.065,11.34s4.558-3.273,4.809-10.958c.243-7.7-3.888-16.866-3.888-16.866s-4.743,8.8-4.986,16.484" transform="translate(-704.847 -160.091)" fill="#fff"/>
      <path id="Path_238" data-name="Path 238" d="M1107.376,308.537c-6.069,3.365-10.774.343-10.774.343a13.793,13.793,0,0,1,6.907-9.443c6.054-3.353,15.1-2.743,15.1-2.743s-5.163,8.487-11.231,11.843" transform="translate(-712.405 -186.526)" fill="#fff"/>
      <path id="Path_239" data-name="Path 239" d="M1099.888,220.62c2.154,6.775,7.037,8.221,7.037,8.221s2.934-4.68.788-11.461-8.59-13.075-8.59-13.075-1.4,9.537.766,16.315" transform="translate(-713.755 -128.461)" fill="#fff"/>
      <path id="Path_240" data-name="Path 240" d="M1131.242,232.952c-4.238,5.352-9.238,4.6-9.238,4.6a14.181,14.181,0,0,1,3.041-10.946c4.249-5.356,12.3-8.45,12.3-8.45s-1.87,9.43-6.1,14.8" transform="translate(-728.808 -137.169)" fill="#fff"/>
      <path id="Path_241" data-name="Path 241" d="M1097.973,168.254c3.487,6.014,8.524,6.138,8.524,6.138a14.4,14.4,0,0,0-1.565-11.346c-3.472-6.027-11.021-10.461-11.021-10.461s.582,9.648,4.061,15.669" transform="translate(-710.658 -95.941)" fill="#fff"/>
      <path id="Path_242" data-name="Path 242" d="M1136.4,165.592c-3.023,6.322-8.052,6.922-8.052,6.922a14.444,14.444,0,0,1,.751-11.463c3.034-6.32,10.236-11.452,10.236-11.452s.1,9.669-2.935,15.994" transform="translate(-732.488 -94.063)" fill="#fff"/>
      <path id="Path_243" data-name="Path 243" d="M1081.5,124.378c4.566,4.208,9.058,2.693,9.058,2.693a12.7,12.7,0,0,0-4.2-9.523c-4.562-4.216-12.332-5.71-12.332-5.71s2.909,8.326,7.475,12.54" transform="translate(-697.739 -70.321)" fill="#fff"/>
      <path id="Path_244" data-name="Path 244" d="M1122.181,103.867c-1.109,6.574-5.4,8.7-5.4,8.7s-3.284-3.789-2.172-10.365c1.108-6.56,6.2-13.41,6.2-13.41s2.486,8.513,1.374,15.074" transform="translate(-723.955 -55.831)" fill="#fff"/>
      <path id="Path_245" data-name="Path 245" d="M1014.166,35.345a6.55,6.55,0,0,0,5.611-2.607,6.7,6.7,0,0,0-5.423-3.077c-3.8-.146-8.325,2.492-8.325,2.492s4.337,3.028,8.138,3.192" transform="translate(-653.564 -18.646)" fill="#fff"/>
      <path id="Path_246" data-name="Path 246" d="M1033.864,7.194a8.619,8.619,0,0,1,.184,6.882s-3.012-.511-4.668-4.4S1028.016,0,1028.016,0s4.2,3.307,5.847,7.194" transform="translate(-667.835)" fill="#fff"/>
      <path id="Path_247" data-name="Path 247" d="M1033.932,57.4a8.1,8.1,0,0,0,7.593-2.146,9.082,9.082,0,0,0-6.429-5.084c-4.831-1-11.054,1.427-11.054,1.427s5.066,4.784,9.89,5.8" transform="translate(-665.267 -31.39)" fill="#fff"/>
      <path id="Path_248" data-name="Path 248" d="M1063.845,22.773a11.15,11.15,0,0,1-.906,8.846s-3.752-1.3-5.244-6.62-.154-12.658-.154-12.658,4.824,5.111,6.3,10.432" transform="translate(-686.674 -7.76)" fill="#fff"/>
      <path id="Path_249" data-name="Path 249" d="M1061.834,88.363a8.716,8.716,0,0,0,8.7.484,11.154,11.154,0,0,0-5.409-7.769c-4.871-2.827-12.2-2.519-12.2-2.519s4.05,6.968,8.911,9.8" transform="translate(-684.03 -49.39)" fill="#fff"/>
      <path id="Path_250" data-name="Path 250" d="M1099.787,59.011c.074,6.215-3.48,9.1-3.48,9.1s-3.627-2.741-3.723-8.969,3.4-13.563,3.4-13.563,3.7,7.2,3.8,13.437" transform="translate(-709.795 -28.656)" fill="#fff"/>
      <path id="Path_251" data-name="Path 251" d="M991.761,9.143a7.417,7.417,0,0,1,4.433,4.7,6.154,6.154,0,0,1-6.031.694c-3.6-1.375-7-5.682-7-5.682s4.993-1.094,8.6.291" transform="translate(-638.708 -5.308)" fill="#fff"/>
    </g>
  </g>
</svg>
