<svg xmlns="http://www.w3.org/2000/svg" width="159" height="47" viewBox="0 0 159 47">
  <g id="Group_34" data-name="Group 34" transform="translate(-122 -1108)">
    <circle id="Ellipse_664" data-name="Ellipse 664" cx="2.5" cy="2.5" r="2.5" transform="translate(122 1108)" fill="#c6c6c6"/>
    <circle id="Ellipse_664-2" data-name="Ellipse 664" cx="2.5" cy="2.5" r="2.5" transform="translate(129 1108)" fill="#c6c6c6"/>
    <circle id="Ellipse_664-3" data-name="Ellipse 664" cx="2.5" cy="2.5" r="2.5" transform="translate(136 1108)" fill="#c6c6c6"/>
    <circle id="Ellipse_664-4" data-name="Ellipse 664" cx="2.5" cy="2.5" r="2.5" transform="translate(143 1108)" fill="#c6c6c6"/>
    <circle id="Ellipse_664-5" data-name="Ellipse 664" cx="2.5" cy="2.5" r="2.5" transform="translate(150 1108)" fill="#c6c6c6"/>
    <circle id="Ellipse_664-6" data-name="Ellipse 664" cx="2.5" cy="2.5" r="2.5" transform="translate(157 1108)" fill="#c6c6c6"/>
    <circle id="Ellipse_664-7" data-name="Ellipse 664" cx="2.5" cy="2.5" r="2.5" transform="translate(164 1108)" fill="#c6c6c6"/>
    <circle id="Ellipse_664-8" data-name="Ellipse 664" cx="2.5" cy="2.5" r="2.5" transform="translate(171 1108)" fill="#c6c6c6"/>
    <circle id="Ellipse_664-9" data-name="Ellipse 664" cx="2.5" cy="2.5" r="2.5" transform="translate(178 1108)" fill="#c6c6c6"/>
    <circle id="Ellipse_664-10" data-name="Ellipse 664" cx="2.5" cy="2.5" r="2.5" transform="translate(185 1108)" fill="#c6c6c6"/>
    <circle id="Ellipse_664-11" data-name="Ellipse 664" cx="2.5" cy="2.5" r="2.5" transform="translate(192 1108)" fill="#c6c6c6"/>
    <circle id="Ellipse_664-12" data-name="Ellipse 664" cx="2.5" cy="2.5" r="2.5" transform="translate(199 1108)" fill="#c6c6c6"/>
    <circle id="Ellipse_664-13" data-name="Ellipse 664" cx="2.5" cy="2.5" r="2.5" transform="translate(206 1108)" fill="#c6c6c6"/>
    <circle id="Ellipse_664-14" data-name="Ellipse 664" cx="2.5" cy="2.5" r="2.5" transform="translate(213 1108)" fill="#c6c6c6"/>
    <circle id="Ellipse_664-15" data-name="Ellipse 664" cx="2.5" cy="2.5" r="2.5" transform="translate(220 1108)" fill="#c6c6c6"/>
    <circle id="Ellipse_664-16" data-name="Ellipse 664" cx="2.5" cy="2.5" r="2.5" transform="translate(227 1108)" fill="#c6c6c6"/>
    <circle id="Ellipse_664-17" data-name="Ellipse 664" cx="2.5" cy="2.5" r="2.5" transform="translate(234 1108)" fill="#c6c6c6"/>
    <circle id="Ellipse_664-18" data-name="Ellipse 664" cx="2.5" cy="2.5" r="2.5" transform="translate(241 1108)" fill="#c6c6c6"/>
    <circle id="Ellipse_664-19" data-name="Ellipse 664" cx="2.5" cy="2.5" r="2.5" transform="translate(248 1108)" fill="#c6c6c6"/>
    <circle id="Ellipse_664-20" data-name="Ellipse 664" cx="2.5" cy="2.5" r="2.5" transform="translate(255 1108)" fill="#c6c6c6"/>
    <circle id="Ellipse_664-21" data-name="Ellipse 664" cx="2.5" cy="2.5" r="2.5" transform="translate(262 1108)" fill="#c6c6c6"/>
    <circle id="Ellipse_664-22" data-name="Ellipse 664" cx="2.5" cy="2.5" r="2.5" transform="translate(269 1108)" fill="#c6c6c6"/>
    <circle id="Ellipse_664-23" data-name="Ellipse 664" cx="2.5" cy="2.5" r="2.5" transform="translate(276 1108)" fill="#c6c6c6"/>
    <circle id="Ellipse_664-24" data-name="Ellipse 664" cx="2.5" cy="2.5" r="2.5" transform="translate(122 1115)" fill="#c6c6c6"/>
    <circle id="Ellipse_664-25" data-name="Ellipse 664" cx="2.5" cy="2.5" r="2.5" transform="translate(129 1115)" fill="#c6c6c6"/>
    <circle id="Ellipse_664-26" data-name="Ellipse 664" cx="2.5" cy="2.5" r="2.5" transform="translate(136 1115)" fill="#c6c6c6"/>
    <circle id="Ellipse_664-27" data-name="Ellipse 664" cx="2.5" cy="2.5" r="2.5" transform="translate(143 1115)" fill="#c6c6c6"/>
    <circle id="Ellipse_664-28" data-name="Ellipse 664" cx="2.5" cy="2.5" r="2.5" transform="translate(150 1115)" fill="#c6c6c6"/>
    <circle id="Ellipse_664-29" data-name="Ellipse 664" cx="2.5" cy="2.5" r="2.5" transform="translate(157 1115)" fill="#c6c6c6"/>
    <circle id="Ellipse_664-30" data-name="Ellipse 664" cx="2.5" cy="2.5" r="2.5" transform="translate(164 1115)" fill="#c6c6c6"/>
    <circle id="Ellipse_664-31" data-name="Ellipse 664" cx="2.5" cy="2.5" r="2.5" transform="translate(171 1115)" fill="#c6c6c6"/>
    <circle id="Ellipse_664-32" data-name="Ellipse 664" cx="2.5" cy="2.5" r="2.5" transform="translate(178 1115)" fill="#c6c6c6"/>
    <circle id="Ellipse_664-33" data-name="Ellipse 664" cx="2.5" cy="2.5" r="2.5" transform="translate(185 1115)" fill="#c6c6c6"/>
    <circle id="Ellipse_664-34" data-name="Ellipse 664" cx="2.5" cy="2.5" r="2.5" transform="translate(192 1115)" fill="#c6c6c6"/>
    <circle id="Ellipse_664-35" data-name="Ellipse 664" cx="2.5" cy="2.5" r="2.5" transform="translate(199 1115)" fill="#c6c6c6"/>
    <circle id="Ellipse_664-36" data-name="Ellipse 664" cx="2.5" cy="2.5" r="2.5" transform="translate(206 1115)" fill="#c6c6c6"/>
    <circle id="Ellipse_664-37" data-name="Ellipse 664" cx="2.5" cy="2.5" r="2.5" transform="translate(213 1115)" fill="#c6c6c6"/>
    <circle id="Ellipse_664-38" data-name="Ellipse 664" cx="2.5" cy="2.5" r="2.5" transform="translate(220 1115)" fill="#c6c6c6"/>
    <circle id="Ellipse_664-39" data-name="Ellipse 664" cx="2.5" cy="2.5" r="2.5" transform="translate(227 1115)" fill="#c6c6c6"/>
    <circle id="Ellipse_664-40" data-name="Ellipse 664" cx="2.5" cy="2.5" r="2.5" transform="translate(234 1115)" fill="#c6c6c6"/>
    <circle id="Ellipse_664-41" data-name="Ellipse 664" cx="2.5" cy="2.5" r="2.5" transform="translate(241 1115)" fill="#c6c6c6"/>
    <circle id="Ellipse_664-42" data-name="Ellipse 664" cx="2.5" cy="2.5" r="2.5" transform="translate(248 1115)" fill="#c6c6c6"/>
    <circle id="Ellipse_664-43" data-name="Ellipse 664" cx="2.5" cy="2.5" r="2.5" transform="translate(255 1115)" fill="#c6c6c6"/>
    <circle id="Ellipse_664-44" data-name="Ellipse 664" cx="2.5" cy="2.5" r="2.5" transform="translate(262 1115)" fill="#dfdfdf"/>
    <circle id="Ellipse_664-45" data-name="Ellipse 664" cx="2.5" cy="2.5" r="2.5" transform="translate(269 1115)" fill="#dfdfdf"/>
    <circle id="Ellipse_664-46" data-name="Ellipse 664" cx="2.5" cy="2.5" r="2.5" transform="translate(276 1115)" fill="#dfdfdf"/>
    <circle id="Ellipse_664-47" data-name="Ellipse 664" cx="2.5" cy="2.5" r="2.5" transform="translate(122 1122)" fill="#c6c6c6"/>
    <circle id="Ellipse_664-48" data-name="Ellipse 664" cx="2.5" cy="2.5" r="2.5" transform="translate(129 1122)" fill="#c6c6c6"/>
    <circle id="Ellipse_664-49" data-name="Ellipse 664" cx="2.5" cy="2.5" r="2.5" transform="translate(136 1122)" fill="#c6c6c6"/>
    <circle id="Ellipse_664-50" data-name="Ellipse 664" cx="2.5" cy="2.5" r="2.5" transform="translate(143 1122)" fill="#c6c6c6"/>
    <circle id="Ellipse_664-51" data-name="Ellipse 664" cx="2.5" cy="2.5" r="2.5" transform="translate(150 1122)" fill="#c6c6c6"/>
    <circle id="Ellipse_664-52" data-name="Ellipse 664" cx="2.5" cy="2.5" r="2.5" transform="translate(157 1122)" fill="#c6c6c6"/>
    <circle id="Ellipse_664-53" data-name="Ellipse 664" cx="2.5" cy="2.5" r="2.5" transform="translate(164 1122)" fill="#c6c6c6"/>
    <circle id="Ellipse_664-54" data-name="Ellipse 664" cx="2.5" cy="2.5" r="2.5" transform="translate(171 1122)" fill="#c6c6c6"/>
    <circle id="Ellipse_664-55" data-name="Ellipse 664" cx="2.5" cy="2.5" r="2.5" transform="translate(178 1122)" fill="#c6c6c6"/>
    <circle id="Ellipse_664-56" data-name="Ellipse 664" cx="2.5" cy="2.5" r="2.5" transform="translate(185 1122)" fill="#c6c6c6"/>
    <circle id="Ellipse_664-57" data-name="Ellipse 664" cx="2.5" cy="2.5" r="2.5" transform="translate(192 1122)" fill="#c6c6c6"/>
    <circle id="Ellipse_664-58" data-name="Ellipse 664" cx="2.5" cy="2.5" r="2.5" transform="translate(199 1122)" fill="#c6c6c6"/>
    <circle id="Ellipse_664-59" data-name="Ellipse 664" cx="2.5" cy="2.5" r="2.5" transform="translate(206 1122)" fill="#c6c6c6"/>
    <circle id="Ellipse_664-60" data-name="Ellipse 664" cx="2.5" cy="2.5" r="2.5" transform="translate(213 1122)" fill="#c6c6c6"/>
    <circle id="Ellipse_664-61" data-name="Ellipse 664" cx="2.5" cy="2.5" r="2.5" transform="translate(220 1122)" fill="#c6c6c6"/>
    <circle id="Ellipse_664-62" data-name="Ellipse 664" cx="2.5" cy="2.5" r="2.5" transform="translate(227 1122)" fill="#c6c6c6"/>
    <circle id="Ellipse_664-63" data-name="Ellipse 664" cx="2.5" cy="2.5" r="2.5" transform="translate(234 1122)" fill="#c6c6c6"/>
    <circle id="Ellipse_664-64" data-name="Ellipse 664" cx="2.5" cy="2.5" r="2.5" transform="translate(241 1122)" fill="#dfdfdf"/>
    <circle id="Ellipse_664-65" data-name="Ellipse 664" cx="2.5" cy="2.5" r="2.5" transform="translate(248 1122)" fill="#dfdfdf"/>
    <circle id="Ellipse_664-66" data-name="Ellipse 664" cx="2.5" cy="2.5" r="2.5" transform="translate(255 1122)" fill="#dfdfdf"/>
    <circle id="Ellipse_664-67" data-name="Ellipse 664" cx="2.5" cy="2.5" r="2.5" transform="translate(262 1122)" fill="#dfdfdf"/>
    <circle id="Ellipse_664-68" data-name="Ellipse 664" cx="2.5" cy="2.5" r="2.5" transform="translate(269 1122)" fill="#dfdfdf"/>
    <circle id="Ellipse_664-69" data-name="Ellipse 664" cx="2.5" cy="2.5" r="2.5" transform="translate(276 1122)" fill="#dfdfdf"/>
    <circle id="Ellipse_664-70" data-name="Ellipse 664" cx="2.5" cy="2.5" r="2.5" transform="translate(122 1129)" fill="#c6c6c6"/>
    <circle id="Ellipse_664-71" data-name="Ellipse 664" cx="2.5" cy="2.5" r="2.5" transform="translate(129 1129)" fill="#c6c6c6"/>
    <circle id="Ellipse_664-72" data-name="Ellipse 664" cx="2.5" cy="2.5" r="2.5" transform="translate(136 1129)" fill="#c6c6c6"/>
    <circle id="Ellipse_664-73" data-name="Ellipse 664" cx="2.5" cy="2.5" r="2.5" transform="translate(143 1129)" fill="#c6c6c6"/>
    <circle id="Ellipse_664-74" data-name="Ellipse 664" cx="2.5" cy="2.5" r="2.5" transform="translate(150 1129)" fill="#c6c6c6"/>
    <circle id="Ellipse_664-75" data-name="Ellipse 664" cx="2.5" cy="2.5" r="2.5" transform="translate(157 1129)" fill="#c6c6c6"/>
    <circle id="Ellipse_664-76" data-name="Ellipse 664" cx="2.5" cy="2.5" r="2.5" transform="translate(164 1129)" fill="#c6c6c6"/>
    <circle id="Ellipse_664-77" data-name="Ellipse 664" cx="2.5" cy="2.5" r="2.5" transform="translate(171 1129)" fill="#c6c6c6"/>
    <circle id="Ellipse_664-78" data-name="Ellipse 664" cx="2.5" cy="2.5" r="2.5" transform="translate(178 1129)" fill="#c6c6c6"/>
    <circle id="Ellipse_664-79" data-name="Ellipse 664" cx="2.5" cy="2.5" r="2.5" transform="translate(185 1129)" fill="#c6c6c6"/>
    <circle id="Ellipse_664-80" data-name="Ellipse 664" cx="2.5" cy="2.5" r="2.5" transform="translate(192 1129)" fill="#c6c6c6"/>
    <circle id="Ellipse_664-81" data-name="Ellipse 664" cx="2.5" cy="2.5" r="2.5" transform="translate(199 1129)" fill="#c6c6c6"/>
    <circle id="Ellipse_664-82" data-name="Ellipse 664" cx="2.5" cy="2.5" r="2.5" transform="translate(206 1129)" fill="#c6c6c6"/>
    <circle id="Ellipse_664-83" data-name="Ellipse 664" cx="2.5" cy="2.5" r="2.5" transform="translate(213 1129)" fill="#c6c6c6"/>
    <circle id="Ellipse_664-84" data-name="Ellipse 664" cx="2.5" cy="2.5" r="2.5" transform="translate(220 1129)" fill="#c6c6c6"/>
    <circle id="Ellipse_664-85" data-name="Ellipse 664" cx="2.5" cy="2.5" r="2.5" transform="translate(227 1129)" fill="#dfdfdf"/>
    <circle id="Ellipse_664-86" data-name="Ellipse 664" cx="2.5" cy="2.5" r="2.5" transform="translate(234 1129)" fill="#dfdfdf"/>
    <circle id="Ellipse_664-87" data-name="Ellipse 664" cx="2.5" cy="2.5" r="2.5" transform="translate(241 1129)" fill="#dfdfdf"/>
    <circle id="Ellipse_664-88" data-name="Ellipse 664" cx="2.5" cy="2.5" r="2.5" transform="translate(248 1129)" fill="#dfdfdf"/>
    <circle id="Ellipse_664-89" data-name="Ellipse 664" cx="2.5" cy="2.5" r="2.5" transform="translate(255 1129)" fill="#dfdfdf"/>
    <circle id="Ellipse_664-90" data-name="Ellipse 664" cx="2.5" cy="2.5" r="2.5" transform="translate(262 1129)" fill="#dfdfdf"/>
    <circle id="Ellipse_664-91" data-name="Ellipse 664" cx="2.5" cy="2.5" r="2.5" transform="translate(269 1129)" fill="#dfdfdf"/>
    <circle id="Ellipse_664-92" data-name="Ellipse 664" cx="2.5" cy="2.5" r="2.5" transform="translate(276 1129)" fill="#dfdfdf"/>
    <circle id="Ellipse_664-93" data-name="Ellipse 664" cx="2.5" cy="2.5" r="2.5" transform="translate(122 1136)" fill="#dfdfdf"/>
    <circle id="Ellipse_664-94" data-name="Ellipse 664" cx="2.5" cy="2.5" r="2.5" transform="translate(129 1136)" fill="#c6c6c6"/>
    <circle id="Ellipse_664-95" data-name="Ellipse 664" cx="2.5" cy="2.5" r="2.5" transform="translate(136 1136)" fill="#c6c6c6"/>
    <circle id="Ellipse_664-96" data-name="Ellipse 664" cx="2.5" cy="2.5" r="2.5" transform="translate(143 1136)" fill="#c6c6c6"/>
    <circle id="Ellipse_664-97" data-name="Ellipse 664" cx="2.5" cy="2.5" r="2.5" transform="translate(150 1136)" fill="#c6c6c6"/>
    <circle id="Ellipse_664-98" data-name="Ellipse 664" cx="2.5" cy="2.5" r="2.5" transform="translate(157 1136)" fill="#c6c6c6"/>
    <circle id="Ellipse_664-99" data-name="Ellipse 664" cx="2.5" cy="2.5" r="2.5" transform="translate(164 1136)" fill="#c6c6c6"/>
    <circle id="Ellipse_664-100" data-name="Ellipse 664" cx="2.5" cy="2.5" r="2.5" transform="translate(171 1136)" fill="#c6c6c6"/>
    <circle id="Ellipse_664-101" data-name="Ellipse 664" cx="2.5" cy="2.5" r="2.5" transform="translate(178 1136)" fill="#c6c6c6"/>
    <circle id="Ellipse_664-102" data-name="Ellipse 664" cx="2.5" cy="2.5" r="2.5" transform="translate(185 1136)" fill="#c6c6c6"/>
    <circle id="Ellipse_664-103" data-name="Ellipse 664" cx="2.5" cy="2.5" r="2.5" transform="translate(192 1136)" fill="#c6c6c6"/>
    <circle id="Ellipse_664-104" data-name="Ellipse 664" cx="2.5" cy="2.5" r="2.5" transform="translate(199 1136)" fill="#c6c6c6"/>
    <circle id="Ellipse_664-105" data-name="Ellipse 664" cx="2.5" cy="2.5" r="2.5" transform="translate(206 1136)" fill="#dfdfdf"/>
    <circle id="Ellipse_664-106" data-name="Ellipse 664" cx="2.5" cy="2.5" r="2.5" transform="translate(213 1136)" fill="#dfdfdf"/>
    <circle id="Ellipse_664-107" data-name="Ellipse 664" cx="2.5" cy="2.5" r="2.5" transform="translate(220 1136)" fill="#dfdfdf"/>
    <circle id="Ellipse_664-108" data-name="Ellipse 664" cx="2.5" cy="2.5" r="2.5" transform="translate(227 1136)" fill="#dfdfdf"/>
    <circle id="Ellipse_664-109" data-name="Ellipse 664" cx="2.5" cy="2.5" r="2.5" transform="translate(234 1136)" fill="#dfdfdf"/>
    <circle id="Ellipse_664-110" data-name="Ellipse 664" cx="2.5" cy="2.5" r="2.5" transform="translate(241 1136)" fill="#dfdfdf"/>
    <circle id="Ellipse_664-111" data-name="Ellipse 664" cx="2.5" cy="2.5" r="2.5" transform="translate(248 1136)" fill="#dfdfdf"/>
    <circle id="Ellipse_664-112" data-name="Ellipse 664" cx="2.5" cy="2.5" r="2.5" transform="translate(255 1136)" fill="#dfdfdf"/>
    <circle id="Ellipse_664-113" data-name="Ellipse 664" cx="2.5" cy="2.5" r="2.5" transform="translate(262 1136)" fill="#dfdfdf"/>
    <circle id="Ellipse_664-114" data-name="Ellipse 664" cx="2.5" cy="2.5" r="2.5" transform="translate(269 1136)" fill="#dfdfdf"/>
    <circle id="Ellipse_664-115" data-name="Ellipse 664" cx="2.5" cy="2.5" r="2.5" transform="translate(276 1136)" fill="#dfdfdf"/>
    <circle id="Ellipse_664-116" data-name="Ellipse 664" cx="2.5" cy="2.5" r="2.5" transform="translate(122 1143)" fill="#dfdfdf"/>
    <circle id="Ellipse_664-117" data-name="Ellipse 664" cx="2.5" cy="2.5" r="2.5" transform="translate(129 1143)" fill="#dfdfdf"/>
    <circle id="Ellipse_664-118" data-name="Ellipse 664" cx="2.5" cy="2.5" r="2.5" transform="translate(136 1143)" fill="#c6c6c6"/>
    <circle id="Ellipse_664-119" data-name="Ellipse 664" cx="2.5" cy="2.5" r="2.5" transform="translate(143 1143)" fill="#c6c6c6"/>
    <circle id="Ellipse_664-120" data-name="Ellipse 664" cx="2.5" cy="2.5" r="2.5" transform="translate(150 1143)" fill="#c6c6c6"/>
    <circle id="Ellipse_664-121" data-name="Ellipse 664" cx="2.5" cy="2.5" r="2.5" transform="translate(157 1143)" fill="#c6c6c6"/>
    <circle id="Ellipse_664-122" data-name="Ellipse 664" cx="2.5" cy="2.5" r="2.5" transform="translate(164 1143)" fill="#c6c6c6"/>
    <circle id="Ellipse_664-123" data-name="Ellipse 664" cx="2.5" cy="2.5" r="2.5" transform="translate(171 1143)" fill="#c6c6c6"/>
    <circle id="Ellipse_664-124" data-name="Ellipse 664" cx="2.5" cy="2.5" r="2.5" transform="translate(178 1143)" fill="#c6c6c6"/>
    <circle id="Ellipse_664-125" data-name="Ellipse 664" cx="2.5" cy="2.5" r="2.5" transform="translate(185 1143)" fill="#dfdfdf"/>
    <circle id="Ellipse_664-126" data-name="Ellipse 664" cx="2.5" cy="2.5" r="2.5" transform="translate(192 1143)" fill="#dfdfdf"/>
    <circle id="Ellipse_664-127" data-name="Ellipse 664" cx="2.5" cy="2.5" r="2.5" transform="translate(199 1143)" fill="#dfdfdf"/>
    <circle id="Ellipse_664-128" data-name="Ellipse 664" cx="2.5" cy="2.5" r="2.5" transform="translate(206 1143)" fill="#dfdfdf"/>
    <circle id="Ellipse_664-129" data-name="Ellipse 664" cx="2.5" cy="2.5" r="2.5" transform="translate(213 1143)" fill="#dfdfdf"/>
    <circle id="Ellipse_664-130" data-name="Ellipse 664" cx="2.5" cy="2.5" r="2.5" transform="translate(220 1143)" fill="#dfdfdf"/>
    <circle id="Ellipse_664-131" data-name="Ellipse 664" cx="2.5" cy="2.5" r="2.5" transform="translate(227 1143)" fill="#dfdfdf"/>
    <circle id="Ellipse_664-132" data-name="Ellipse 664" cx="2.5" cy="2.5" r="2.5" transform="translate(234 1143)" fill="#dfdfdf"/>
    <circle id="Ellipse_664-133" data-name="Ellipse 664" cx="2.5" cy="2.5" r="2.5" transform="translate(241 1143)" fill="#dfdfdf"/>
    <circle id="Ellipse_664-134" data-name="Ellipse 664" cx="2.5" cy="2.5" r="2.5" transform="translate(248 1143)" fill="#dfdfdf"/>
    <circle id="Ellipse_664-135" data-name="Ellipse 664" cx="2.5" cy="2.5" r="2.5" transform="translate(255 1143)" fill="#dfdfdf"/>
    <circle id="Ellipse_664-136" data-name="Ellipse 664" cx="2.5" cy="2.5" r="2.5" transform="translate(262 1143)" fill="#dfdfdf"/>
    <circle id="Ellipse_664-137" data-name="Ellipse 664" cx="2.5" cy="2.5" r="2.5" transform="translate(269 1143)" fill="#dfdfdf"/>
    <circle id="Ellipse_664-138" data-name="Ellipse 664" cx="2.5" cy="2.5" r="2.5" transform="translate(276 1143)" fill="#dfdfdf"/>
    <circle id="Ellipse_664-139" data-name="Ellipse 664" cx="2.5" cy="2.5" r="2.5" transform="translate(122 1150)" fill="#dfdfdf"/>
    <circle id="Ellipse_664-140" data-name="Ellipse 664" cx="2.5" cy="2.5" r="2.5" transform="translate(129 1150)" fill="#dfdfdf"/>
    <circle id="Ellipse_664-141" data-name="Ellipse 664" cx="2.5" cy="2.5" r="2.5" transform="translate(136 1150)" fill="#dfdfdf"/>
    <circle id="Ellipse_664-142" data-name="Ellipse 664" cx="2.5" cy="2.5" r="2.5" transform="translate(143 1150)" fill="#c6c6c6"/>
    <circle id="Ellipse_664-143" data-name="Ellipse 664" cx="2.5" cy="2.5" r="2.5" transform="translate(150 1150)" fill="#c6c6c6"/>
    <circle id="Ellipse_664-144" data-name="Ellipse 664" cx="2.5" cy="2.5" r="2.5" transform="translate(157 1150)" fill="#c6c6c6"/>
    <circle id="Ellipse_664-145" data-name="Ellipse 664" cx="2.5" cy="2.5" r="2.5" transform="translate(164 1150)" fill="#dfdfdf"/>
    <circle id="Ellipse_664-146" data-name="Ellipse 664" cx="2.5" cy="2.5" r="2.5" transform="translate(171 1150)" fill="#dfdfdf"/>
    <circle id="Ellipse_664-147" data-name="Ellipse 664" cx="2.5" cy="2.5" r="2.5" transform="translate(178 1150)" fill="#dfdfdf"/>
    <circle id="Ellipse_664-148" data-name="Ellipse 664" cx="2.5" cy="2.5" r="2.5" transform="translate(185 1150)" fill="#dfdfdf"/>
    <circle id="Ellipse_664-149" data-name="Ellipse 664" cx="2.5" cy="2.5" r="2.5" transform="translate(192 1150)" fill="#dfdfdf"/>
    <circle id="Ellipse_664-150" data-name="Ellipse 664" cx="2.5" cy="2.5" r="2.5" transform="translate(199 1150)" fill="#dfdfdf"/>
    <circle id="Ellipse_664-151" data-name="Ellipse 664" cx="2.5" cy="2.5" r="2.5" transform="translate(206 1150)" fill="#dfdfdf"/>
    <circle id="Ellipse_664-152" data-name="Ellipse 664" cx="2.5" cy="2.5" r="2.5" transform="translate(213 1150)" fill="#dfdfdf"/>
    <circle id="Ellipse_664-153" data-name="Ellipse 664" cx="2.5" cy="2.5" r="2.5" transform="translate(220 1150)" fill="#dfdfdf"/>
    <circle id="Ellipse_664-154" data-name="Ellipse 664" cx="2.5" cy="2.5" r="2.5" transform="translate(227 1150)" fill="#dfdfdf"/>
    <circle id="Ellipse_664-155" data-name="Ellipse 664" cx="2.5" cy="2.5" r="2.5" transform="translate(234 1150)" fill="#dfdfdf"/>
    <circle id="Ellipse_664-156" data-name="Ellipse 664" cx="2.5" cy="2.5" r="2.5" transform="translate(241 1150)" fill="#dfdfdf"/>
    <circle id="Ellipse_664-157" data-name="Ellipse 664" cx="2.5" cy="2.5" r="2.5" transform="translate(248 1150)" fill="#dfdfdf"/>
    <circle id="Ellipse_664-158" data-name="Ellipse 664" cx="2.5" cy="2.5" r="2.5" transform="translate(255 1150)" fill="#dfdfdf"/>
    <circle id="Ellipse_664-159" data-name="Ellipse 664" cx="2.5" cy="2.5" r="2.5" transform="translate(262 1150)" fill="#dfdfdf"/>
    <circle id="Ellipse_664-160" data-name="Ellipse 664" cx="2.5" cy="2.5" r="2.5" transform="translate(269 1150)" fill="#dfdfdf"/>
    <circle id="Ellipse_664-161" data-name="Ellipse 664" cx="2.5" cy="2.5" r="2.5" transform="translate(276 1150)" fill="#dfdfdf"/>
  </g>
</svg>
