<svg xmlns="http://www.w3.org/2000/svg" width="270.573" height="80" viewBox="0 0 270.573 80">
  <g id="Group_3" data-name="Group 3" transform="translate(-8.3 -3.8)">
    <path id="Path_1" data-name="Path 1" d="M8.3,3.8V47.645L53.085,83.8l225.788-80Z" transform="translate(0 0)" fill="#dc001a"/>
    <g id="Group_1" data-name="Group 1" transform="translate(18.512 12.604)">
      <path id="Path_2" data-name="Path 2" d="M239.641,197h-2.826v-2.937h2.826Zm0,13.98h-2.826V198.462h2.826Z" transform="translate(-236.815 -194.06)" fill="#fff"/>
      <path id="Path_3" data-name="Path 3" d="M303.544,244.344h-2.828v-7.816a2.688,2.688,0,0,0-.57-1.865,1.8,1.8,0,0,0-1.376-.627,2.487,2.487,0,0,0-1.933.967,4.376,4.376,0,0,0-.83,2.913v6.432h-2.826v-12.52h2.578v2.9q1.35-3.16,3.792-3.16a4.1,4.1,0,0,1,2.82,1.041q1.175,1.041,1.175,3.656Z" transform="translate(-286.962 -227.424)" fill="#fff"/>
      <path id="Path_4" data-name="Path 4" d="M413.424,216.266v2.206a10.02,10.02,0,0,1-1.958.273,3.989,3.989,0,0,1-1.958-.453,2.769,2.769,0,0,1-1.2-1.239,5.876,5.876,0,0,1-.378-2.423v-6.482h-1.561v-2.193h1.723l.26-3.26,2.317-.211v3.47h2.516v2.193h-2.516v6.11a1.66,1.66,0,0,0,2.045,2.033Q413.052,216.291,413.424,216.266Z" transform="translate(-387.658 -201.552)" fill="#fff"/>
      <path id="Path_5" data-name="Path 5" d="M490.03,240.351l2.553.347a5.342,5.342,0,0,1-1.933,2.8,5.752,5.752,0,0,1-3.6,1.1,5.386,5.386,0,0,1-4.189-1.747,6.777,6.777,0,0,1-1.586-4.735,6.948,6.948,0,0,1,1.6-4.7,5.425,5.425,0,0,1,4.337-1.859,4.99,4.99,0,0,1,4.139,1.834,7.323,7.323,0,0,1,1.46,4.713l-.012.322H484.2a7.017,7.017,0,0,0,.242,2.045,2.753,2.753,0,0,0,.96,1.339,3.022,3.022,0,0,0,4.622-1.463Zm-.174-3.743a3.146,3.146,0,0,0-.812-2.206,2.742,2.742,0,0,0-3.922-.056,3.6,3.6,0,0,0-.917,2.262Z" transform="translate(-454.288 -227.422)" fill="#fff"/>
      <path id="Path_6" data-name="Path 6" d="M611.884,210.98h-2.826V194.059h2.826Z" transform="translate(-567.974 -194.059)" fill="#fff"/>
      <path id="Path_7" data-name="Path 7" d="M666.888,240.351l2.553.347a5.343,5.343,0,0,1-1.937,2.8,5.752,5.752,0,0,1-3.6,1.1,5.386,5.386,0,0,1-4.189-1.747,6.777,6.777,0,0,1-1.586-4.735,6.948,6.948,0,0,1,1.6-4.7,5.425,5.425,0,0,1,4.337-1.859,4.99,4.99,0,0,1,4.139,1.834,7.322,7.322,0,0,1,1.463,4.71l-.013.322h-8.588a7.021,7.021,0,0,0,.241,2.045,2.755,2.755,0,0,0,.96,1.339,3.022,3.022,0,0,0,4.622-1.463Zm-.174-3.743a3.145,3.145,0,0,0-.812-2.206,2.742,2.742,0,0,0-3.922-.056,3.6,3.6,0,0,0-.917,2.262Z" transform="translate(-611.625 -227.421)" fill="#fff"/>
      <path id="Path_8" data-name="Path 8" d="M788.25,212.252v2.169h-.867a3.29,3.29,0,0,0-1,.136,1.712,1.712,0,0,0-.837.88,3.477,3.477,0,0,1,1.488,2.7,3.354,3.354,0,0,1-1.394,2.751,5.817,5.817,0,0,1-3.687,1.09,9.983,9.983,0,0,1-2.317-.323,1.3,1.3,0,0,0-.868,1.227,1.129,1.129,0,0,0,.421.843,1.842,1.842,0,0,0,1.276.384h3.719a4.287,4.287,0,0,1,2.993.985,3.173,3.173,0,0,1,1.084,2.448,3.485,3.485,0,0,1-1.645,2.937,8.4,8.4,0,0,1-4.865,1.165q-6.06,0-6.061-3.383a2.742,2.742,0,0,1,1.822-2.54,2.772,2.772,0,0,1-1.165-2.07,2.926,2.926,0,0,1,2-2.6,3.245,3.245,0,0,1-1.735-2.9,3.4,3.4,0,0,1,1.276-2.663,5.812,5.812,0,0,1,3.879-1.1,11.617,11.617,0,0,1,2.417.26,2.815,2.815,0,0,1,3.011-2.392Zm-9.519,14.228a1.538,1.538,0,0,0-.607,1.078,1.826,1.826,0,0,0,1.018,1.506,6.177,6.177,0,0,0,3.235.651q3.26,0,3.26-1.673a1.012,1.012,0,0,0-.57-.935,2.637,2.637,0,0,0-1.3-.313h-3A8.171,8.171,0,0,1,778.732,226.48Zm3.1-6.172q2.305,0,2.305-2.169a1.893,1.893,0,0,0-.577-1.4,2.29,2.29,0,0,0-1.68-.57,2.38,2.38,0,0,0-1.729.6,1.986,1.986,0,0,0-.613,1.488,1.944,1.944,0,0,0,.607,1.488,2.364,2.364,0,0,0,1.686.567Z" transform="translate(-716.219 -210.241)" fill="#fff"/>
      <path id="Path_9" data-name="Path 9" d="M906.629,240.351l2.553.347a5.342,5.342,0,0,1-1.933,2.8,5.752,5.752,0,0,1-3.6,1.1,5.386,5.386,0,0,1-4.189-1.747,6.777,6.777,0,0,1-1.586-4.735,6.947,6.947,0,0,1,1.6-4.7,5.425,5.425,0,0,1,4.337-1.859,4.99,4.99,0,0,1,4.139,1.834,7.323,7.323,0,0,1,1.462,4.71l-.012.322H900.8a7.017,7.017,0,0,0,.242,2.045,2.752,2.752,0,0,0,.96,1.339,3.022,3.022,0,0,0,4.622-1.463Zm-.174-3.743a3.147,3.147,0,0,0-.812-2.206,2.742,2.742,0,0,0-3.922-.056,3.6,3.6,0,0,0-.917,2.262Z" transform="translate(-824.905 -227.422)" fill="#fff"/>
      <path id="Path_10" data-name="Path 10" d="M1036.125,244.344H1033.3v-7.816a2.688,2.688,0,0,0-.57-1.865,1.8,1.8,0,0,0-1.376-.627,2.487,2.487,0,0,0-1.934.967,4.377,4.377,0,0,0-.83,2.913v6.432h-2.826v-12.52h2.578v2.9q1.35-3.16,3.792-3.16a4.1,4.1,0,0,1,2.82,1.041q1.175,1.041,1.171,3.656Z" transform="translate(-938.689 -227.424)" fill="#fff"/>
      <path id="Path_11" data-name="Path 11" d="M1151.027,239.746l2.428.248a5.856,5.856,0,0,1-1.822,3.483,4.918,4.918,0,0,1-3.26,1.127,4.653,4.653,0,0,1-3.984-1.89,7.581,7.581,0,0,1-1.394-4.629,7.1,7.1,0,0,1,1.525-4.672,5,5,0,0,1,4.065-1.846q4.09,0,4.871,4.313l-2.428.335q-.322-2.33-2.293-2.33a2.189,2.189,0,0,0-2.089,1.258,6.556,6.556,0,0,0-.651,3.043,5.317,5.317,0,0,0,.675,2.925,2.139,2.139,0,0,0,1.89,1.029Q1150.416,242.138,1151.027,239.746Z" transform="translate(-1042.98 -227.424)" fill="#fff"/>
      <path id="Path_12" data-name="Path 12" d="M1260.139,197h-2.826v-2.937h2.826Zm0,13.98h-2.826V198.462h2.826Z" transform="translate(-1144.68 -194.06)" fill="#fff"/>
      <path id="Path_13" data-name="Path 13" d="M1318,244.341h-2.689a10.2,10.2,0,0,1-.434-2.529,4.191,4.191,0,0,1-4.239,2.789,4.14,4.14,0,0,1-3.006-1.1,3.675,3.675,0,0,1-1.134-2.757q0-4.313,7.573-4.313.3,0,.805.013v-.94q0-1.946-2.652-1.946-2.578,0-2.925,1.946l-2.4-.36a3.644,3.644,0,0,1,1.611-2.572,6.981,6.981,0,0,1,4.09-1.01,9.536,9.536,0,0,1,2.367.242,3.629,3.629,0,0,1,1.55.818,3.132,3.132,0,0,1,.873,1.253,7.545,7.545,0,0,1,.241,2.287v5.651A9.2,9.2,0,0,0,1318,244.341Zm-3.123-6.37q-5.478,0-5.478,2.615a1.816,1.816,0,0,0,.548,1.332,2.266,2.266,0,0,0,1.667.548,2.943,2.943,0,0,0,2.435-1.022,3.6,3.6,0,0,0,.824-2.323Z" transform="translate(-1188.433 -227.421)" fill="#fff"/>
    </g>
    <g id="Group_2" data-name="Group 2" transform="translate(18.752 37.533)">
      <path id="Path_14" data-name="Path 14" d="M239.755,427.206h-.771v-6.152h3.768v.676h-3v1.943h2.483v.622h-2.483Z" transform="translate(-238.984 -420.927)" fill="#fff"/>
      <path id="Path_15" data-name="Path 15" d="M278.05,439.21a1.73,1.73,0,0,1-1.463-.695,2.776,2.776,0,0,1-.525-1.723,2.482,2.482,0,0,1,.591-1.737,1.9,1.9,0,0,1,1.469-.649,1.794,1.794,0,0,1,1.488.683,2.659,2.659,0,0,1,.543,1.708,2.555,2.555,0,0,1-.586,1.739A1.912,1.912,0,0,1,278.05,439.21Zm.054-.586a1.126,1.126,0,0,0,.906-.446,2.174,2.174,0,0,0,.365-1.388,2.022,2.022,0,0,0-.383-1.372,1.175,1.175,0,0,0-.9-.426,1.128,1.128,0,0,0-.892.43,2.087,2.087,0,0,0-.365,1.363,2.168,2.168,0,0,0,.365,1.41,1.141,1.141,0,0,0,.9.429Z" transform="translate(-271.968 -432.805)" fill="#fff"/>
      <path id="Path_16" data-name="Path 16" d="M322.557,437.489l.64.113a2.037,2.037,0,0,1-.6,1.182,1.81,1.81,0,0,1-2.594-.268,2.853,2.853,0,0,1-.493-1.7,2.778,2.778,0,0,1,.52-1.723,1.683,1.683,0,0,1,1.417-.688,1.622,1.622,0,0,1,1.192.444A1.991,1.991,0,0,1,323.2,436l-.64.121q-.18-1.126-1.088-1.126a1,1,0,0,0-.9.5,2.384,2.384,0,0,0-.313,1.291,2.5,2.5,0,0,0,.313,1.359.989.989,0,0,0,.879.484Q322.322,438.625,322.557,437.489Z" transform="translate(-310.621 -432.806)" fill="#fff"/>
      <path id="Path_17" data-name="Path 17" d="M365.27,440.1h-.64v-.87a1.55,1.55,0,0,1-1.448,1,1.372,1.372,0,0,1-1.1-.46,1.94,1.94,0,0,1-.4-1.308V435.55h.705v2.907a1.225,1.225,0,0,0,.282.931.9.9,0,0,0,.62.255,1.058,1.058,0,0,0,.62-.193,1.489,1.489,0,0,0,.462-.548,1.681,1.681,0,0,0,.185-.783v-2.564h.705Z" transform="translate(-348.144 -433.823)" fill="#fff"/>
      <path id="Path_18" data-name="Path 18" d="M401.418,437.9l.676-.14q.226.862,1.424.862a1.35,1.35,0,0,0,.748-.2.627.627,0,0,0,.306-.559q0-.536-.783-.679l-.96-.182a1.753,1.753,0,0,1-.9-.424,1.1,1.1,0,0,1-.334-.833,1.206,1.206,0,0,1,.455-.958,1.835,1.835,0,0,1,1.226-.385,1.669,1.669,0,0,1,1.83,1.159l-.649.139a1.111,1.111,0,0,0-1.149-.712,1.293,1.293,0,0,0-.71.178.56.56,0,0,0-.277.5q0,.5.705.635l.888.157q1.393.253,1.393,1.35a1.2,1.2,0,0,1-.519,1.014,2.255,2.255,0,0,1-1.379.386,1.83,1.83,0,0,1-2-1.305Z" transform="translate(-383.49 -432.801)" fill="#fff"/>
      <path id="Path_19" data-name="Path 19" d="M445.9,437.727l.658.136a1.852,1.852,0,0,1-.705.965,2.028,2.028,0,0,1-1.231.382,1.914,1.914,0,0,1-1.51-.656,2.866,2.866,0,0,1,.023-3.478,1.934,1.934,0,0,1,1.506-.67,1.818,1.818,0,0,1,1.435.617,2.776,2.776,0,0,1,.556,1.848h-3.308a1.764,1.764,0,0,0,.432,1.393,1.41,1.41,0,0,0,.915.36,1.253,1.253,0,0,0,1.228-.9Zm-.041-1.383a1.975,1.975,0,0,0-.126-.681,1.162,1.162,0,0,0-.4-.507,1.088,1.088,0,0,0-.671-.209,1.2,1.2,0,0,0-.895.378,1.567,1.567,0,0,0-.412,1.018Z" transform="translate(-420.07 -432.805)" fill="#fff"/>
      <path id="Path_20" data-name="Path 20" d="M490.013,421.053V427.2h-.64v-.783a1.54,1.54,0,0,1-1.44.906,1.587,1.587,0,0,1-1.314-.67,2.7,2.7,0,0,1-.515-1.694,2.876,2.876,0,0,1,.509-1.744,1.6,1.6,0,0,1,1.352-.7,1.567,1.567,0,0,1,1.339.748v-2.222Zm-.705,3.357a1.288,1.288,0,0,0-.365-.96,1.175,1.175,0,0,0-.851-.36,1.032,1.032,0,0,0-.867.47,2.208,2.208,0,0,0-.34,1.316,2.55,2.55,0,0,0,.313,1.393.976.976,0,0,0,.862.478,1.154,1.154,0,0,0,.874-.414,1.4,1.4,0,0,0,.378-.974Z" transform="translate(-458.83 -420.926)" fill="#fff"/>
      <path id="Path_21" data-name="Path 21" d="M554,439.21a1.73,1.73,0,0,1-1.463-.695,2.776,2.776,0,0,1-.525-1.723,2.482,2.482,0,0,1,.591-1.737,1.9,1.9,0,0,1,1.469-.649,1.794,1.794,0,0,1,1.488.683,2.658,2.658,0,0,1,.543,1.708,2.556,2.556,0,0,1-.586,1.739A1.912,1.912,0,0,1,554,439.21Zm.054-.586a1.126,1.126,0,0,0,.906-.446,2.173,2.173,0,0,0,.365-1.388,2.022,2.022,0,0,0-.383-1.372,1.175,1.175,0,0,0-.9-.426,1.128,1.128,0,0,0-.892.43,2.088,2.088,0,0,0-.365,1.363,2.169,2.169,0,0,0,.365,1.41,1.141,1.141,0,0,0,.9.429Z" transform="translate(-517.46 -432.805)" fill="#fff"/>
      <path id="Path_22" data-name="Path 22" d="M602.27,439.084h-.663v-2.925a1.18,1.18,0,0,0-.275-.888.94.94,0,0,0-.667-.257,1.145,1.145,0,0,0-.908.432,1.7,1.7,0,0,0-.367,1.141v2.5h-.705v-4.552h.658v.838a1.638,1.638,0,0,1,1.438-.964,1.424,1.424,0,0,1,.868.264,1.4,1.4,0,0,1,.491.592,3.609,3.609,0,0,1,.133,1.19Z" transform="translate(-558.983 -432.806)" fill="#fff"/>
      <path id="Path_23" data-name="Path 23" d="M666.047,424.119l.705.157a2.265,2.265,0,0,1-2.28,2.037,2.12,2.12,0,0,1-1.832-.94,3.917,3.917,0,0,1-.665-2.318,3.524,3.524,0,0,1,.694-2.282,2.267,2.267,0,0,1,1.861-.862,2.2,2.2,0,0,1,2.222,1.979l-.725.144q-.4-1.469-1.5-1.469a1.428,1.428,0,0,0-1.264.683,3.478,3.478,0,0,0-.448,1.918,3.2,3.2,0,0,0,.46,1.814,1.405,1.405,0,0,0,1.217.683Q665.664,425.661,666.047,424.119Z" transform="translate(-615.287 -419.909)" fill="#fff"/>
      <path id="Path_24" data-name="Path 24" d="M716.924,440.1h-.638v-.87a1.55,1.55,0,0,1-1.448,1,1.372,1.372,0,0,1-1.1-.46,1.939,1.939,0,0,1-.4-1.308V435.55h.705v2.907a1.225,1.225,0,0,0,.282.931.9.9,0,0,0,.62.255,1.057,1.057,0,0,0,.62-.193,1.488,1.488,0,0,0,.462-.548,1.681,1.681,0,0,0,.185-.783v-2.564h.7Z" transform="translate(-660.986 -433.823)" fill="#fff"/>
      <path id="Path_25" data-name="Path 25" d="M753.071,437.9l.676-.14q.226.862,1.424.862a1.35,1.35,0,0,0,.748-.2.627.627,0,0,0,.306-.559q0-.536-.783-.679l-.96-.182a1.754,1.754,0,0,1-.9-.424,1.1,1.1,0,0,1-.334-.833,1.2,1.2,0,0,1,.455-.958,1.835,1.835,0,0,1,1.226-.385,1.669,1.669,0,0,1,1.83,1.159l-.649.139a1.111,1.111,0,0,0-1.149-.712,1.293,1.293,0,0,0-.71.178.56.56,0,0,0-.277.5q0,.5.705.635l.888.157q1.393.253,1.393,1.35a1.2,1.2,0,0,1-.519,1.014,2.254,2.254,0,0,1-1.379.386,1.829,1.829,0,0,1-2-1.305Z" transform="translate(-696.331 -432.801)" fill="#fff"/>
      <path id="Path_26" data-name="Path 26" d="M793.74,429.884v.559a5.022,5.022,0,0,1-.649.049q-1.321,0-1.321-1.381v-2.742h-.807v-.554h.807l.031-1.145.658-.063v1.208h1.018v.554H792.46v2.861a.634.634,0,0,0,.73.705A3.479,3.479,0,0,0,793.74,429.884Z" transform="translate(-730.042 -424.087)" fill="#fff"/>
      <path id="Path_27" data-name="Path 27" d="M820.635,439.21a1.73,1.73,0,0,1-1.463-.695,2.777,2.777,0,0,1-.525-1.723,2.483,2.483,0,0,1,.591-1.737,1.9,1.9,0,0,1,1.47-.649,1.794,1.794,0,0,1,1.488.683,2.659,2.659,0,0,1,.543,1.708,2.556,2.556,0,0,1-.586,1.739A1.912,1.912,0,0,1,820.635,439.21Zm.054-.586a1.126,1.126,0,0,0,.906-.446,2.173,2.173,0,0,0,.365-1.388,2.022,2.022,0,0,0-.383-1.372,1.175,1.175,0,0,0-.9-.426,1.128,1.128,0,0,0-.892.43,2.088,2.088,0,0,0-.365,1.363,2.168,2.168,0,0,0,.365,1.41,1.141,1.141,0,0,0,.9.429Z" transform="translate(-754.67 -432.805)" fill="#fff"/>
      <path id="Path_28" data-name="Path 28" d="M871.414,439.084h-.689v-2.83a2.637,2.637,0,0,0-.061-.656.783.783,0,0,0-.3-.4.835.835,0,0,0-.527-.183,1.114,1.114,0,0,0-.783.372,1.531,1.531,0,0,0-.376,1.134v2.565H868v-3a1.074,1.074,0,0,0-.286-.848.91.91,0,0,0-.6-.247,1.007,1.007,0,0,0-.783.388,1.452,1.452,0,0,0-.334.982v2.722h-.676v-4.552h.609v.874a1.553,1.553,0,0,1,1.4-1,1.175,1.175,0,0,1,.834.32,1.465,1.465,0,0,1,.442.771,1.531,1.531,0,0,1,1.437-1.09,1.306,1.306,0,0,1,.813.266,1.224,1.224,0,0,1,.455.611,3.466,3.466,0,0,1,.106.971Z" transform="translate(-796.191 -432.806)" fill="#fff"/>
      <path id="Path_29" data-name="Path 29" d="M933.526,437.727l.658.135a1.851,1.851,0,0,1-.705.965,2.028,2.028,0,0,1-1.231.382,1.914,1.914,0,0,1-1.509-.656,2.865,2.865,0,0,1,.023-3.478,1.935,1.935,0,0,1,1.506-.67,1.818,1.818,0,0,1,1.435.617,2.777,2.777,0,0,1,.556,1.848H930.95a1.764,1.764,0,0,0,.432,1.393,1.411,1.411,0,0,0,.915.36A1.253,1.253,0,0,0,933.526,437.727Zm-.041-1.383a1.973,1.973,0,0,0-.126-.681,1.162,1.162,0,0,0-.4-.507,1.088,1.088,0,0,0-.671-.209,1.2,1.2,0,0,0-.895.378,1.567,1.567,0,0,0-.412,1.018Z" transform="translate(-853.878 -432.805)" fill="#fff"/>
      <path id="Path_30" data-name="Path 30" d="M977.626,439.012h-.705v-4.549h.622v1.064a2.282,2.282,0,0,1,.66-.975,1.2,1.2,0,0,1,.678-.223,2.786,2.786,0,0,1,.28.018v.676h-.144a1.246,1.246,0,0,0-.974.437,1.772,1.772,0,0,0-.414,1.149Z" transform="translate(-895.473 -432.733)" fill="#fff"/>
      <path id="Path_31" data-name="Path 31" d="M1029.94,426.53v.676h-3.979v-6.152h3.894v.676h-3.123v1.958h2.479v.627h-2.479v2.218Z" transform="translate(-939.099 -420.927)" fill="#fff"/>
      <path id="Path_32" data-name="Path 32" d="M1068.926,440.1h-.816l-1.155-1.849-1.185,1.849h-.692l1.534-2.367-1.385-2.186h.816l.967,1.55,1-1.55h.681l-1.322,2.037Z" transform="translate(-973.9 -433.823)" fill="#fff"/>
      <path id="Path_33" data-name="Path 33" d="M1107.355,440.62h-.705v-6.088h.64v.884a1.553,1.553,0,0,1,2.736-.335,3.259,3.259,0,0,1-.014,3.476,1.585,1.585,0,0,1-1.307.654,1.508,1.508,0,0,1-1.347-.815Zm0-4.471v1.284a1.354,1.354,0,0,0,.437.853,1.137,1.137,0,0,0,.771.337,1.073,1.073,0,0,0,.823-.406,2.127,2.127,0,0,0,.358-1.4,2.307,2.307,0,0,0-.324-1.327,1,1,0,0,0-.862-.47,1.057,1.057,0,0,0-.759.329,1.592,1.592,0,0,0-.444.8Z" transform="translate(-1010.882 -432.806)" fill="#fff"/>
      <path id="Path_34" data-name="Path 34" d="M1151.45,437.727l.658.135a1.851,1.851,0,0,1-.705.965,2.028,2.028,0,0,1-1.231.382,1.914,1.914,0,0,1-1.51-.656,2.865,2.865,0,0,1,.023-3.478,1.935,1.935,0,0,1,1.506-.67,1.818,1.818,0,0,1,1.435.617,2.776,2.776,0,0,1,.556,1.848h-3.3a1.763,1.763,0,0,0,.432,1.393,1.41,1.41,0,0,0,.915.36,1.254,1.254,0,0,0,1.222-.9Zm-.041-1.383a1.974,1.974,0,0,0-.126-.681,1.16,1.16,0,0,0-.4-.507,1.087,1.087,0,0,0-.671-.209,1.2,1.2,0,0,0-.895.378,1.566,1.566,0,0,0-.412,1.018Z" transform="translate(-1047.751 -432.805)" fill="#fff"/>
      <path id="Path_35" data-name="Path 35" d="M1195.555,439.012h-.705v-4.549h.622v1.064a2.281,2.281,0,0,1,.66-.975,1.2,1.2,0,0,1,.678-.223q.14,0,.28.018v.676h-.144a1.246,1.246,0,0,0-.974.437,1.775,1.775,0,0,0-.415,1.149Z" transform="translate(-1089.346 -432.733)" fill="#fff"/>
      <path id="Path_36" data-name="Path 36" d="M1222.88,421.054v.789h-.761v-.789Zm-.023,1.6v4.552h-.705v-4.549Z" transform="translate(-1113.609 -420.927)" fill="#fff"/>
      <path id="Path_37" data-name="Path 37" d="M1241.73,437.727l.658.136a1.851,1.851,0,0,1-.705.965,2.029,2.029,0,0,1-1.231.382,1.913,1.913,0,0,1-1.509-.656,2.866,2.866,0,0,1,.023-3.478,1.934,1.934,0,0,1,1.5-.67,1.818,1.818,0,0,1,1.435.617,2.775,2.775,0,0,1,.556,1.848h-3.308a1.765,1.765,0,0,0,.433,1.393,1.41,1.41,0,0,0,.915.36A1.253,1.253,0,0,0,1241.73,437.727Zm-.041-1.383a1.977,1.977,0,0,0-.126-.681,1.159,1.159,0,0,0-.4-.507,1.087,1.087,0,0,0-.671-.209,1.2,1.2,0,0,0-.895.378,1.566,1.566,0,0,0-.412,1.018Z" transform="translate(-1128.068 -432.805)" fill="#fff"/>
      <path id="Path_38" data-name="Path 38" d="M1288.709,439.084h-.663v-2.925a1.179,1.179,0,0,0-.275-.887.94.94,0,0,0-.667-.257,1.145,1.145,0,0,0-.908.432,1.7,1.7,0,0,0-.367,1.141v2.5h-.705v-4.552h.658v.838a1.638,1.638,0,0,1,1.438-.964,1.424,1.424,0,0,1,.868.264,1.4,1.4,0,0,1,.491.592,3.6,3.6,0,0,1,.133,1.19Z" transform="translate(-1169.662 -432.806)" fill="#fff"/>
      <path id="Path_39" data-name="Path 39" d="M1330.267,437.489l.64.113a2.036,2.036,0,0,1-.6,1.182,1.81,1.81,0,0,1-2.594-.268,2.852,2.852,0,0,1-.494-1.7,2.778,2.778,0,0,1,.521-1.723,1.683,1.683,0,0,1,1.417-.688,1.622,1.622,0,0,1,1.192.444,1.991,1.991,0,0,1,.556,1.147l-.64.121q-.18-1.126-1.088-1.126a1,1,0,0,0-.9.5,2.382,2.382,0,0,0-.313,1.291,2.5,2.5,0,0,0,.313,1.359.99.99,0,0,0,.88.484Q1330.032,438.625,1330.267,437.489Z" transform="translate(-1207.113 -432.806)" fill="#fff"/>
      <path id="Path_40" data-name="Path 40" d="M1369.54,437.727l.658.136a1.852,1.852,0,0,1-.705.965,2.027,2.027,0,0,1-1.23.382,1.914,1.914,0,0,1-1.51-.656,2.865,2.865,0,0,1,.023-3.478,1.934,1.934,0,0,1,1.506-.67,1.818,1.818,0,0,1,1.435.617,2.775,2.775,0,0,1,.556,1.848h-3.308a1.764,1.764,0,0,0,.432,1.393,1.41,1.41,0,0,0,.915.36,1.254,1.254,0,0,0,1.229-.9Zm-.041-1.383a1.98,1.98,0,0,0-.126-.681,1.162,1.162,0,0,0-.4-.507,1.089,1.089,0,0,0-.672-.209,1.2,1.2,0,0,0-.895.378,1.566,1.566,0,0,0-.412,1.018Z" transform="translate(-1241.769 -432.805)" fill="#fff"/>
    </g>
  </g>
</svg>
