<svg xmlns="http://www.w3.org/2000/svg" width="63" height="42.018" viewBox="0 0 63 42.018">
  <path id="Icon_ionic-ios-arrow-round-forward" data-name="Icon ionic-ios-arrow-round-forward" d="M48.051,12.056a2.859,2.859,0,0,0-.022,4.026l13.3,13.327H10.7a2.845,2.845,0,0,0,0,5.689H61.312l-13.3,13.327a2.88,2.88,0,0,0,.022,4.026,2.833,2.833,0,0,0,4-.022L70.065,34.267h0a3.2,3.2,0,0,0,.591-.9,2.715,2.715,0,0,0,.219-1.094,2.852,2.852,0,0,0-.81-1.991L52.034,12.122A2.788,2.788,0,0,0,48.051,12.056Z" transform="translate(-7.875 -11.252)" fill="#93d522"/>
</svg>
