<svg id="talkdesk" xmlns="http://www.w3.org/2000/svg" width="225.17" height="36.529" viewBox="0 0 225.17 36.529">
  <path id="Path_43" data-name="Path 43" d="M3.469,10.1A3.47,3.47,0,1,1,0,13.564,3.47,3.47,0,0,1,3.469,10.1" transform="translate(0 8.335)" fill="#994ffa" fill-rule="evenodd"/>
  <path id="Path_44" data-name="Path 44" d="M3.469,15.389A3.47,3.47,0,1,1,0,18.86a3.47,3.47,0,0,1,3.469-3.471" transform="translate(0 12.706)" fill="#bf91fc" fill-rule="evenodd"/>
  <path id="Path_45" data-name="Path 45" d="M120.976,27.812a7.084,7.084,0,0,1-5.227,2.059,7.282,7.282,0,0,1-5.28-2.059,7.452,7.452,0,0,1-2.059-5.386,7.245,7.245,0,0,1,2.059-5.333,7.122,7.122,0,0,1,5.28-2.11,6.931,6.931,0,0,1,5.227,2.11,7.245,7.245,0,0,1,2.059,5.333,7.452,7.452,0,0,1-2.059,5.386Zm2.059-15.47a10.172,10.172,0,0,0-8.555-3.854,12.154,12.154,0,0,0-9.134,4.066,14.028,14.028,0,0,0-3.748,9.873,14.154,14.154,0,0,0,3.748,9.926,12.1,12.1,0,0,0,9.134,4.015,10.174,10.174,0,0,0,8.555-3.856v3.116h6.81V0h-6.81Zm18.1,7.75a6.584,6.584,0,0,1,6.917-5.333,6.379,6.379,0,0,1,6.545,5.333Zm6.917-11.458a13.326,13.326,0,0,0-10.034,4.013,13.659,13.659,0,0,0-3.907,9.926,13.533,13.533,0,0,0,3.96,9.981c2.642,2.638,6.125,3.96,10.508,3.96,5.068,0,8.922-1.9,11.509-5.65L154.6,27.695a7.01,7.01,0,0,1-5.911,2.64c-4.066,0-6.549-1.638-7.445-4.964h19.9a17.737,17.737,0,0,0,.263-2.8,13.88,13.88,0,0,0-3.8-9.926,12.442,12.442,0,0,0-9.555-4.013Zm29.354,11.142c-2.693-.686-4.8-1.479-4.8-2.9,0-1.32,1.318-2.165,3.062-2.165a4.362,4.362,0,0,1,4.225,2.693l5.807-3.167A12.042,12.042,0,0,0,168.484,10.9a7.349,7.349,0,0,0-2.852,6.125c0,5.492,4.911,7.127,8.818,8.131,2.693.686,4.8,1.477,4.8,2.9,0,1.532-1.216,2.271-3.644,2.271-2.693,0-4.382-1.161-5.174-3.432l-5.913,3.326c1.953,4.172,5.648,6.284,11.087,6.284a12.759,12.759,0,0,0,7.551-2.165,7.279,7.279,0,0,0,3.062-6.284c.053-5.649-4.964-7.5-8.816-8.288Zm37.223-10.4H206.5l-9.081,11.617V.1h-6.811V35.773h6.811V23.788l9.61,11.985h7.92l-10.93-13.358Zm7.072,5.8a2.934,2.934,0,1,1,2.934-2.934,2.934,2.934,0,0,1-2.934,2.934Zm0-6.4a1.5,1.5,0,1,0,0-.011Zm.487,3.151a.8.8,0,0,1-.462.141H221.1v-1.03h.551a.933.933,0,0,1,.553.122.491.491,0,0,1,.157.411.413.413,0,0,1-.177.345Zm.719,1.2a.8.8,0,0,0-.491-.812.814.814,0,0,0,.511-.75.9.9,0,0,0-.338-.759,1.507,1.507,0,0,0-.948-.261h-1.1v3.387h.562V12.566h.7a.475.475,0,0,1,.522.4,4.33,4.33,0,0,1,.011.436,1.679,1.679,0,0,0,.057.513h.579v-.064a1.3,1.3,0,0,1-.068-.495ZM3.469,8.765A3.47,3.47,0,1,0,6.94,12.236,3.47,3.47,0,0,0,3.469,8.765Zm97.759.608H93.1L84.016,20.989V.1H77.2V35.773h6.811V23.788l9.61,11.985h7.918L90.615,22.415Zm-37.077,26.4h6.81V.1h-6.81ZM49.062,27.96a7.079,7.079,0,0,1-5.227,2.057,7.079,7.079,0,0,1-5.227-2.057,7.456,7.456,0,0,1-2.059-5.387,7.245,7.245,0,0,1,2.059-5.333,6.928,6.928,0,0,1,5.227-2.11,6.928,6.928,0,0,1,5.227,2.11,7.082,7.082,0,0,1,2.112,5.333,7.284,7.284,0,0,1-2.112,5.387Zm2.112-15.472a10.341,10.341,0,0,0-8.606-3.854A12.044,12.044,0,0,0,33.486,12.7a14.028,14.028,0,0,0-3.748,9.873A14.151,14.151,0,0,0,33.486,32.5a11.994,11.994,0,0,0,9.083,4.015,10.342,10.342,0,0,0,8.606-3.856v3.116h6.811V9.373H51.174ZM20.642,0h-6.81V27.275c0,7.233,3.43,9.926,12.778,8.869V29.968c-3.909.21-5.968.159-5.968-2.693v-11.5H26.61V9.225H20.642Z" fill="#5405bd" fill-rule="evenodd"/>
</svg>
